<svg xmlns="http://www.w3.org/2000/svg" viewBox="0 0 2146.4 576" xml:space="preserve" height="25" color="#fff"><path d="M616.3 266c-5.5-41.1-24.3-75.5-55.4-102.9-27.3-24-59.3-37.1-95.3-40.9-18.1-1.9-36-.5-53.7 3.7-45.7 10.7-81.1 35.9-106.2 75.5-17.1 27.1-25 57.1-25.1 89-.1 83.3 0 166.7 0 250v3c.3 3.5.9 7 2.5 10.2 4.1 7.8 10.6 12.3 19.3 12.6 8.6.3 15.8-3 20.5-10.6 2.8-4.4 3.6-9.4 3.6-14.5V405.5c1.5.1 1.9 1 2.5 1.6 4.4 4.4 8.9 8.6 13.8 12.4 41.6 32.5 88.3 44.6 140.3 34.5 37-7.2 68.2-25.3 92.9-53.7 33.5-38.6 47.2-83.6 40.3-134.3M447.9 412.3c-68.3-.3-122.7-56.5-122.7-122.9 0-66.3 53.3-123.8 123.6-123.4 69.6 0 123.4 55.4 123.4 123.6-.1 67.3-54.8 123-124.3 122.7M1906 279c-.3-5.5-.4-11.1-1.1-16.6-3.5-28.8-12.6-55.5-29.8-79-29.3-40.2-69.1-60.6-118.8-62-13.3-.4-26.4 1.5-39.4 4.4-27.3 6.1-51.3 18.7-71.8 37.6-30.4 28.1-47 63.4-52.2 104.2-2.7 21.4-1.2 42.5 3.7 63.4 8.1 34.3 24.8 63.4 51.2 86.8 26.5 23.6 58 36 93.2 39.2 19.5 1.7 38.8 0 57.9-4.5 28.7-6.7 53.2-20.4 72.6-43 6.4-7.5 8.4-15.9 5.3-25.3-3-9.1-12.8-14.4-21.8-13-6.9 1.1-12.5 4.5-17.2 9.5-9.3 9.7-20.1 17-32.5 22.4-14.7 6.4-30.2 8.6-46.1 9-10.9.3-21.7-.5-32.3-3.3-50.1-13-80.2-53.9-87.7-97.9-.8-4.9-.8-4.3 3.7-4.3h242.7c8.6-.5 15.7-5.7 18.3-13.6 1.5-4.4 2.4-9.1 2.1-14m-265.3-15.7c-.3-2 .4-3.9.8-5.6 6.8-26.8 20.1-49.7 42-66.9 18.5-14.6 39.6-22.7 63.2-24.3 16.7-1.1 33 .6 48.5 7.2 32 13.7 52.6 37.6 63.4 70.4 2 6.1 3.3 12.4 3.9 19.2zm-659.5-10.2c-10-46.2-35.5-82-75.7-106.7-38-23.3-79.4-30.1-123.3-21.5-36.9 7.2-67.9 24.9-93.1 52.7-37 40.7-49.9 98-38.7 147.5 7.9 34.9 24.9 64.4 51.3 88.5 32.4 29.4 71 43.2 112.5 44.2 15.7-.2 29.1-1.9 42.4-5.1 42.9-10.5 76.7-34.1 100.8-70.8 25.9-39.5 33.8-82.7 23.8-128.8M816.1 412.2c-70.3.3-123.7-56.8-123.7-122.9.1-66.9 53.8-123.5 124.1-123.4 70 .2 122.8 55.8 122.8 123.6 0 66.9-53.6 123.2-123.2 122.7M1026.5 174V39.4c0-9.1 3.2-16.5 11.1-21.5 12.9-8.1 30.5-.9 33.9 13.4.7 3.1 1.1 6.2 1.1 9.4V122c0 3.4-.3 3.3 3.3 3.3h90.1c18.6 0 37.1-.1 55.6 0 5.7 0 11.3 1 16.1 4.7 7.2 5.5 9.5 13 8.1 21.7q-1.5 9.45-9.6 14.7c-3.4 2.2-7.2 3-11.1 3.4-1.9.2-3.8.2-5.7.2h-142.3c-5 0-4.5-.6-4.5 4.4v121.4c0 13.9.8 27.8 4.1 41.3 4.1 17.1 10.9 33 22.8 46.3 15.2 17.1 34.2 26.8 57 28.5 17 1.2 33.8.2 50.1-5.4 13.9-4.8 26.1-12.6 37.5-21.6 2.1-1.6 4.1-3.4 6.3-4.8 9.1-5.8 21-4.2 27.9 3.7 3.9 4.4 5 9.8 4.4 15.6-.6 6.2-3.4 11.5-8 15.9-20.7 20.1-44.9 33.5-73.4 38.9-18.1 3.4-36.2 4.9-54.6 2.4-43.3-6-76.2-27.6-98-65.5-9.2-16-14.5-33.4-18.1-51.5-2.7-13.6-4-27.4-4-41.3-.1-41.6-.1-83-.1-124.3m289.8 1.3V39.9c0-5.9 1.1-11.5 4.9-16.3 5.3-6.8 12.4-10 20.9-8.8 10 1.4 16.8 7 19.3 17.1.7 2.7.9 5.5.9 8.3v80.9c0 4.3-.6 4.1 4 4.1h144.6c6.1 0 12.1 1.1 17.1 5 6.7 5.4 8.9 12.5 7.7 20.9-.9 6.5-4 11.5-9.5 15.1-3.4 2.2-7.2 3-11.1 3.4-2 .2-4 .2-6.1.2h-143.1c-3.6 0-3.6 0-3.6 3.4v122.1c0 13.1.8 26.2 3.6 39.1 4 18.1 11 34.8 23.4 48.8 15.1 17 34 26.7 56.7 28.3 17.7 1.2 35.3.2 52.2-6.1 13.1-4.9 24.8-12.4 35.7-21 2-1.6 3.9-3.3 6-4.6 9.1-5.8 20.9-4.4 27.9 3.4 3.9 4.3 5 9.6 4.5 15.1-.5 6.4-3.3 11.8-7.9 16.3-20 19.2-43.1 32.6-70.4 38.4-19 4-38.2 5.7-57.5 3.1-43.3-5.9-76.2-27.5-98.1-65.4-9.2-15.9-14.5-33.2-18-51.1-3-14.9-4.1-30-4.1-45.1zm-1195.4-54c15 0 29.7 2 44 6.3 22.5 6.6 40.9 19.3 55.6 37.4 1.4 1.8 2.9 3.5 4.2 5.3 5.3 7.2 6.8 15.1 3.7 23.6-3.5 9.7-13.1 15-22.8 13.1-7.4-1.5-13.2-5-17.8-11.1-11.9-15.6-27.8-24.5-47-27.9-16.3-2.9-32.6-2.7-48.9.8-6.8 1.5-13.3 4-19.4 7.4-7.1 4-12.9 9.3-16.4 16.8-5.8 12.5-4.8 31.1 8.6 43 5.5 4.8 11.6 8.5 18.1 11.6 12.1 5.8 24.8 9.8 37.6 13.6 19 5.6 37.9 11.4 56.2 19 14.8 6.2 29 13.7 41.1 24.4 21.7 19.2 29.2 43.5 24 71.7-5.1 27.6-21.6 47.1-44.8 61.8-13.7 8.6-28.9 13.7-44.7 16.8-24.7 4.8-49.2 3.1-73.5-2.7-19.4-4.6-37.1-12.7-52.6-25.4-9.1-7.4-16.4-16.5-22.5-26.3-4.1-6.6-4.7-13.8-1.6-21 3.8-8.9 12.8-12.8 22.1-11.5 6 .8 11.4 3.2 16.1 7 1 .8 1.9 1.7 2.6 2.7 10.9 16.5 26.8 26 45.5 31 14.7 3.9 29.8 4.7 45 3.9 14.7-.8 28.2-5.1 40.6-13 9.3-6 16.7-13.8 20.7-24.4 5.3-13.9 3-29.5-8.4-40.4-5.5-5.3-11.9-9.4-18.6-12.8-14.2-7.3-29.3-12.2-44.5-16.9-12.2-3.7-24.6-6.6-36.7-10.6-13.8-4.6-27.2-10.1-39.4-18.1-8.3-5.4-15.9-11.5-22.4-19.1-13-15.4-18.6-33.4-17.8-53.2.9-21.5 9.4-39.8 25.8-54 11.2-9.8 24-16.6 38.2-21 16.4-5.1 33-7.8 50.1-7.8m1821 234.6c0-22.1-.3-44.1.1-66.2.5-25.1 5-49.7 14.8-72.9 17-40.1 46.7-66.5 87.7-80.4 19.1-6.5 38.8-10 58.9-10.8 6-.3 12.1-.9 18.1 0 6.4 1.1 12.1 3.4 16.1 8.8 9.7 13.1 2.7 32.9-13.1 35.9-2.8.5-5.5.8-8.3.9-17.1.4-34 1.9-50.3 7.4-16.5 5.5-31.4 13.6-44 25.8-14.3 13.9-23.2 30.9-28.6 49.9-4.1 14.4-5.5 29.2-5.5 44.1-.1 43 0 86 0 129 0 6-1.3 11.7-5 16.7-8.8 11.7-27.1 11.1-35.9-.1-3.8-4.8-5.1-10.3-5.1-16.2v-71.9z" style="fill:currentColor"/></svg>