<svg width="34" height="34" viewBox="0 0 34 34" fill="none" xmlns="http://www.w3.org/2000/svg"><g filter="url(#a)"><rect x="3" y="2" width="28" height="28" rx="6" fill="#fff"/><rect x="3" y="2" width="28" height="28" rx="6" fill="url(#b)" fill-opacity=".02"/><rect x="3" y="2" width="28" height="28" rx="6" stroke="#F0F0ED" stroke-linecap="round"/><path d="M14.6 13.6h.008m4.792 4.8h.008m.792-5.6-6.4 6.4m.962 3.68a1 1 0 0 1 .736.198l.962.738a.884.884 0 0 0 1.078 0l1-.767a.88.88 0 0 1 .654-.175l1.25.165a.886.886 0 0 0 .934-.54l.48-1.163a.88.88 0 0 1 .48-.48l1.163-.48a.886.886 0 0 0 .54-.934l-.159-1.205a1 1 0 0 1 .198-.736l.738-.962a.884.884 0 0 0 0-1.079l-.767-.999a.88.88 0 0 1-.175-.655l.165-1.25a.886.886 0 0 0-.54-.933l-1.162-.481a.88.88 0 0 1-.48-.48l-.481-1.163a.885.885 0 0 0-.934-.54l-1.25.165a.88.88 0 0 1-.654-.173l-.999-.767a.884.884 0 0 0-1.078 0l-1 .767a.9.9 0 0 1-.654.175l-1.25-.165a.886.886 0 0 0-.934.54l-.48 1.163a.9.9 0 0 1-.48.48l-1.162.48a.886.886 0 0 0-.54.934l.165 1.25a.9.9 0 0 1-.175.653l-.767 1a.884.884 0 0 0 0 1.078l.767.999a.88.88 0 0 1 .175.655l-.165 1.25a.886.886 0 0 0 .54.933l1.162.481c.218.09.39.262.48.48l.481 1.163c.153.37.537.592.934.54zM15 13.6a.4.4 0 1 1-.8 0 .4.4 0 0 1 .8 0m4.8 4.8a.4.4 0 1 1-.8 0 .4.4 0 0 1 .8 0" stroke="#008080" stroke-linecap="round" stroke-linejoin="round"/><g filter="url(#c)"><path d="M14.645 13.644h.008m4.792 4.8h.008m.792-5.6-6.4 6.4m1.2-5.6a.4.4 0 1 1-.8 0 .4.4 0 0 1 .8 0m4.8 4.8a.4.4 0 1 1-.8 0 .4.4 0 0 1 .8 0" stroke="#008080" stroke-linecap="round" stroke-linejoin="round"/></g></g><defs><filter id="a" x=".5" y=".5" width="33" height="33" filterUnits="userSpaceOnUse" color-interpolation-filters="sRGB"><feFlood flood-opacity="0" result="BackgroundImageFix"/><feColorMatrix in="SourceAlpha" values="0 0 0 0 0 0 0 0 0 0 0 0 0 0 0 0 0 0 127 0" result="hardAlpha"/><feOffset dy="1"/><feGaussianBlur stdDeviation="1"/><feComposite in2="hardAlpha" operator="out"/><feColorMatrix values="0 0 0 0 0.0941176 0 0 0 0 0.0980392 0 0 0 0 0.0862745 0 0 0 0.06 0"/><feBlend in2="BackgroundImageFix" result="effect1_dropShadow_1537_115120"/><feBlend in="SourceGraphic" in2="effect1_dropShadow_1537_115120" result="shape"/></filter><filter id="c" x="13.345" y="12.344" width="8.4" height="8.4" filterUnits="userSpaceOnUse" color-interpolation-filters="sRGB"><feFlood flood-opacity="0" result="BackgroundImageFix"/><feBlend in="SourceGraphic" in2="BackgroundImageFix" result="shape"/><feColorMatrix in="SourceAlpha" values="0 0 0 0 0 0 0 0 0 0 0 0 0 0 0 0 0 0 127 0" result="hardAlpha"/><feOffset dx="1" dy="1"/><feGaussianBlur stdDeviation=".5"/><feComposite in2="hardAlpha" operator="arithmetic" k2="-1" k3="1"/><feColorMatrix values="0 0 0 0 0.466667 0 0 0 0 0.211765 0 0 0 0 0.109804 0 0 0 0.25 0"/><feBlend in2="shape" result="effect1_innerShadow_1537_115120"/></filter><linearGradient id="b" x1="25.568" y1="31.882" x2="6.578" y2="20.385" gradientUnits="userSpaceOnUse"><stop stop-color="#484946"/><stop offset="1" stop-color="#6E6F6C"/></linearGradient></defs></svg>