<svg xmlns="http://www.w3.org/2000/svg" fill="none" preserveAspectRatio="xMidYMid slice" viewBox="0 0 468 190" class="WhyFingerprintSection-module--radarSvg--0993c"><g fill="#D9D9D9" clip-path="url(#a)"><path d="M-3 6h6V0h-6zm18 0h6V0h-6z"></path><path d="M33 6h6V0h-6z"></path><path d="M51 6h6V0h-6z"></path><path d="M69 6h6V0h-6zm18 0h6V0h-6z"></path><path d="M105 6h6V0h-6z"></path><path d="M123 6h6V0h-6z"></path><path d="M141 6h6V0h-6z"></path><path d="M159 6h6V0h-6z"></path><path d="M177 6h6V0h-6z"></path><path d="M195 6h6V0h-6z"></path><path d="M213 6h6V0h-6z"></path><path d="M231 6h6V0h-6z"></path><path d="M249 6h6V0h-6z"></path><path d="M267 6h6V0h-6z"></path><path d="M285 6h6V0h-6z"></path><path d="M303 6h6V0h-6zm18 0h6V0h-6z"></path><path d="M357 6h6V0h-6z"></path><path d="M375 6h6V0h-6z"></path><path d="M393 6h6V0h-6z"></path><path d="M411 6h6V0h-6z"></path><path d="M429 6h6V0h-6z"></path><path d="M447 6h6V0h-6zm18 0h6V0h-6z"></path><path d="M-3 28h6v-6h-6z"></path><path d="M15 28h6v-6h-6z"></path><path d="M33 28h6v-6h-6z"></path><path d="M51 28h6v-6h-6zm18 0h6v-6h-6z"></path><path d="M87 28h6v-6h-6z"></path><path d="M105 28h6v-6h-6z"></path><path d="M123 28h6v-6h-6z"></path><path d="M141 28h6v-6h-6z"></path><path d="M159 28h6v-6h-6z"></path><path d="M177 28h6v-6h-6zm18 0h6v-6h-6zm18 0h6v-6h-6z"></path><path d="M231 28h6v-6h-6z"></path><path d="M267 28h6v-6h-6zm36 0h6v-6h-6z"></path><path d="M321 28h6v-6h-6zm18 0h6v-6h-6zm18 0h6v-6h-6zm18 0h6v-6h-6z"></path><path d="M393 28h6v-6h-6z"></path><path d="M411 28h6v-6h-6z"></path><path d="M429 28h6v-6h-6z"></path><path d="M447 28h6v-6h-6zm18 0h6v-6h-6zM-3 50h6v-6h-6z"></path><path d="M15 50h6v-6h-6z"></path><path d="M33 50h6v-6h-6z"></path><path d="M51 50h6v-6h-6z"></path><path d="M69 50h6v-6h-6zm18 0h6v-6h-6zm18 0h6v-6h-6z"></path><path d="M123 50h6v-6h-6z"></path><path d="M141 50h6v-6h-6z"></path><path d="M159 50h6v-6h-6z"></path><path d="M177 50h6v-6h-6z"></path><path d="M195 50h6v-6h-6z"></path><path d="M213 50h6v-6h-6z"></path><path d="M231 50h6v-6h-6z"></path><path d="M249 50h6v-6h-6zm18 0h6v-6h-6zm18 0h6v-6h-6z"></path><path d="M303 50h6v-6h-6z"></path><path d="M321 50h6v-6h-6z"></path><path d="M357 50h6v-6h-6z"></path><path d="M375 50h6v-6h-6z"></path><path d="M393 50h6v-6h-6z"></path><path d="M411 50h6v-6h-6z"></path><path d="M429 50h6v-6h-6z"></path><path d="M465 50h6v-6h-6z"></path><path d="M6 72h6v-6H6z"></path><path d="M24 72h6v-6h-6z"></path><path d="M42 72h6v-6h-6z"></path><path d="M60 72h6v-6h-6zm18 0h6v-6h-6zm18 0h6v-6h-6z"></path><path d="M114 72h6v-6h-6z"></path><path d="M150 72h6v-6h-6z"></path><path d="M168 72h6v-6h-6zm18 0h6v-6h-6z"></path><path d="M204 72h6v-6h-6z"></path><path d="M222 72h6v-6h-6z"></path><path d="M240 72h6v-6h-6z"></path><path d="M258 72h6v-6h-6z"></path><path d="M276 72h6v-6h-6z"></path><path d="M330 72h6v-6h-6z"></path><path d="M348 72h6v-6h-6z"></path><path d="M366 72h6v-6h-6z"></path><path d="M384 72h6v-6h-6z"></path><path d="M402 72h6v-6h-6z"></path><path d="M420 72h6v-6h-6z"></path><path d="M438 72h6v-6h-6zm18 0h6v-6h-6zm6 22h-6v-6h6z"></path><path d="M444 94h-6v-6h6zm-18 0h-6v-6h6z"></path><path d="M408 94h-6v-6h6zm-18 0h-6v-6h6z"></path><path d="M372 94h-6v-6h6zm-18 0h-6v-6h6z"></path><path d="M336 94h-6v-6h6zm-18 0h-6v-6h6z"></path><path d="M282 94h-6v-6h6z"></path><path d="M264 94h-6v-6h6z"></path><path d="M246 94h-6v-6h6z"></path><path d="M228 94h-6v-6h6zm-18 0h-6v-6h6zm-18 0h-6v-6h6z"></path><path d="M174 94h-6v-6h6z"></path><path d="M156 94h-6v-6h6zm-18 0h-6v-6h6z"></path><path d="M120 94h-6v-6h6z"></path><path d="M102 94h-6v-6h6z"></path><path d="M84 94h-6v-6h6z"></path><path d="M66 94h-6v-6h6z"></path><path d="M30 94h-6v-6h6zm-18 0H6v-6h6z"></path><path d="M-3 110h6v6h-6z"></path><path d="M15 110h6v6h-6z"></path><path d="M33 110h6v6h-6z"></path><path d="M51 110h6v6h-6zm18 0h6v6h-6z"></path><path d="M87 110h6v6h-6z"></path><path d="M105 110h6v6h-6z"></path><path d="M123 110h6v6h-6zm18 0h6v6h-6z"></path><path d="M159 110h6v6h-6z"></path><path d="M177 110h6v6h-6z"></path><path d="M213 110h6v6h-6zm18 0h6v6h-6z"></path><path d="M249 110h6v6h-6z"></path><path d="M267 110h6v6h-6zm18 0h6v6h-6z"></path><path d="M303 110h6v6h-6z"></path><path d="M321 110h6v6h-6zm18 0h6v6h-6z"></path><path d="M357 110h6v6h-6z"></path><path d="M375 110h6v6h-6z"></path><path d="M393 110h6v6h-6z"></path><path d="M411 110h6v6h-6z"></path><path d="M429 110h6v6h-6z"></path><path d="M447 110h6v6h-6zm18 0h6v6h-6zm6 28h-6v-6h6zm-18 0h-6v-6h6z"></path><path d="M435 138h-6v-6h6z"></path><path d="M417 138h-6v-6h6z"></path><path d="M399 138h-6v-6h6zm-18 0h-6v-6h6z"></path><path d="M363 138h-6v-6h6z"></path><path d="M345 138h-6v-6h6z"></path><path d="M327 138h-6v-6h6z"></path><path d="M309 138h-6v-6h6z"></path><path d="M291 138h-6v-6h6z"></path><path d="M273 138h-6v-6h6z"></path><path d="M255 138h-6v-6h6z"></path><path d="M237 138h-6v-6h6z"></path><path d="M219 138h-6v-6h6z"></path><path d="M201 138h-6v-6h6z"></path><path d="M183 138h-6v-6h6z"></path><path d="M165 138h-6v-6h6zm-18 0h-6v-6h6z"></path><path d="M111 138h-6v-6h6z"></path><path d="M93 138h-6v-6h6z"></path><path d="M75 138h-6v-6h6z"></path><path d="M57 138h-6v-6h6z"></path><path d="M39 138h-6v-6h6z"></path><path d="M21 138h-6v-6h6zm-18 0h-6v-6h6z"></path><path d="M471 154h-6v6h6z"></path><path d="M453 154h-6v6h6z"></path><path d="M435 154h-6v6h6z"></path><path d="M417 154h-6v6h6zm-18 0h-6v6h6z"></path><path d="M381 154h-6v6h6z"></path><path d="M363 154h-6v6h6z"></path><path d="M345 154h-6v6h6z"></path><path d="M327 154h-6v6h6z"></path><path d="M309 154h-6v6h6z"></path><path d="M291 154h-6v6h6zm-18 0h-6v6h6zm-18 0h-6v6h6z"></path><path d="M237 154h-6v6h6z"></path><path d="M201 154h-6v6h6zm-36 0h-6v6h6z"></path><path d="M147 154h-6v6h6zm-18 0h-6v6h6zm-18 0h-6v6h6zm-18 0h-6v6h6z"></path><path d="M75 154h-6v6h6z"></path><path d="M57 154h-6v6h6z"></path><path d="M39 154h-6v6h6z"></path><path d="M21 154h-6v6h6zm-18 0h-6v6h6z"></path><path d="M-3 176h6v6h-6z"></path><path d="M15 176h6v6h-6z"></path><path d="M33 176h6v6h-6z"></path><path d="M51 176h6v6h-6zm18 0h6v6h-6z"></path><path d="M87 176h6v6h-6z"></path><path d="M105 176h6v6h-6z"></path><path d="M123 176h6v6h-6z"></path><path d="M141 176h6v6h-6z"></path><path d="M159 176h6v6h-6z"></path><path d="M177 176h6v6h-6zm18 0h6v6h-6zm18 0h6v6h-6z"></path><path d="M231 176h6v6h-6z"></path><path d="M267 176h6v6h-6zm36 0h6v6h-6z"></path><path d="M321 176h6v6h-6zm18 0h6v6h-6zm18 0h6v6h-6zm18 0h6v6h-6z"></path><path d="M393 176h6v6h-6z"></path><path d="M411 176h6v6h-6z"></path><path d="M429 176h6v6h-6z"></path><path d="M447 176h6v6h-6zm18 0h6v6h-6zm6 22h-6v6h6z"></path></g><defs><clipPath id="a"><path fill="#fff" d="M0 0h468v226H0z"></path></clipPath></defs></svg>