<svg xmlns="http://www.w3.org/2000/svg" width="34" height="34" fill="none" viewBox="0 0 34 34"><g filter="url(#a)"><rect width="28" height="28" x="3" y="2" fill="#fff" rx="6"/><rect width="28" height="28" x="3" y="2" rx="6"/><rect width="28" height="28" x="3" y="2" stroke="#F0F0ED" stroke-linecap="round" rx="6"/><g clip-path="url(#b)"><g filter="url(#c)"><path stroke="#008080" stroke-linecap="round" stroke-linejoin="round" d="M20.4 20c1.6-1 2.6-2.8 2.6-4.8a6 6 0 0 0-6-5.9 6 6 0 0 0-6 5.9c0 2 1 3.7 2.6 4.8m1-2.7a3 3 0 0 1-1-2.1c0-1.8 1.6-3.2 3.4-3.2s3.3 1.4 3.3 3.2a3 3 0 0 1-.9 2.1M17 22.7c-.7 0-1.3-.6-1.3-1.4V20a1.3 1.3 0 0 1 2.6 0v1.3c0 .8-.6 1.4-1.3 1.4m.7-7.4a.7.7 0 1 1-1.4 0 .7.7 0 0 1 1.4 0"/></g><g stroke="#008080" stroke-linecap="round" stroke-linejoin="round" filter="url(#d)"><path d="M15.7 20a1.3 1.3 0 0 1 2.6 0v1.3a1.3 1.3 0 0 1-2.6 0zm1.3-4a.7.7 0 1 0 0-1.4.7.7 0 0 0 0 1.4"/></g></g></g><defs><filter id="a" width="33" height="33" x=".5" y=".5" color-interpolation-filters="sRGB" filterUnits="userSpaceOnUse"><feFlood flood-opacity="0" result="BackgroundImageFix"/><feColorMatrix in="SourceAlpha" result="hardAlpha" values="0 0 0 0 0 0 0 0 0 0 0 0 0 0 0 0 0 0 127 0"/><feOffset dy="1"/><feGaussianBlur stdDeviation="1"/><feComposite in2="hardAlpha" operator="out"/><feColorMatrix values="0 0 0 0 0.0941176 0 0 0 0 0.0980392 0 0 0 0 0.0862745 0 0 0 0.06 0"/><feBlend in2="BackgroundImageFix" result="effect1_dropShadow_1537_115765"/><feBlend in="SourceGraphic" in2="effect1_dropShadow_1537_115765" result="shape"/></filter><filter id="c" width="14" height="15.3" x="10.5" y="8.8" color-interpolation-filters="sRGB" filterUnits="userSpaceOnUse"><feFlood flood-opacity="0" result="BackgroundImageFix"/><feBlend in="SourceGraphic" in2="BackgroundImageFix" result="shape"/><feColorMatrix in="SourceAlpha" result="hardAlpha" values="0 0 0 0 0 0 0 0 0 0 0 0 0 0 0 0 0 0 127 0"/><feOffset dx="1" dy="1"/><feGaussianBlur stdDeviation=".5"/><feComposite in2="hardAlpha" k2="-1" k3="1" operator="arithmetic"/><feColorMatrix values="0 0 0 0 0.466667 0 0 0 0 0.211765 0 0 0 0 0.109804 0 0 0 0.25 0"/><feBlend in2="shape" result="effect1_innerShadow_1537_115765"/></filter><filter id="d" width="4.7" height="10" x="15.2" y="14.1" color-interpolation-filters="sRGB" filterUnits="userSpaceOnUse"><feFlood flood-opacity="0" result="BackgroundImageFix"/><feBlend in="SourceGraphic" in2="BackgroundImageFix" result="shape"/><feColorMatrix in="SourceAlpha" result="hardAlpha" values="0 0 0 0 0 0 0 0 0 0 0 0 0 0 0 0 0 0 127 0"/><feOffset dx="1" dy="1"/><feGaussianBlur stdDeviation=".5"/><feComposite in2="hardAlpha" k2="-1" k3="1" operator="arithmetic"/><feColorMatrix values="0 0 0 0 0.466667 0 0 0 0 0.211765 0 0 0 0 0.109804 0 0 0 0.25 0"/><feBlend in2="shape" result="effect1_innerShadow_1537_115765"/></filter><clipPath id="b"><rect width="16" height="16" x="9" y="8" fill="#fff" rx="6.6"/></clipPath></defs></svg>